<?xml version="1.0" encoding="utf-8"?>
<!DOCTYPE svg PUBLIC "-//W3C//DTD SVG 1.1//EN" "http://www.w3.org/Graphics/SVG/1.1/DTD/svg11.dtd">
<svg version="1.1" id="Layer_1" xmlns="http://www.w3.org/2000/svg" xmlns:xlink="http://www.w3.org/1999/xlink" x="0px" y="0px"
	 viewBox="217.0345 30.6115 830.3125 842.8933" enable-background="new 217.0345 30.6115 830.3125 842.8933" xml:space="preserve">
<g id="_x23_000000ff">
	<path d="M567.9,50.35c46.97-7.3,94.93-7.18,142.08-1.6c43.16,5.58,85.65,17.42,124.86,36.43c34.43,16.65,66.17,38.77,93.97,65.01
		c25.81,24.49,48.33,52.76,64.7,84.42c28.14,52.34,40.1899,112.24,39.95,171.36c0.2201,50.98-8.1499,102.8-30.4299,149
		c-15.6801,32.29-37.82,61.75-65.85,84.32c-24.53,19.7401-54.68,32.59-86.09,35.6c-21.88,2.05-44.5,1.03-65.39-6.31
		c-14.13,8.42-32.01,10.05-47.42,4.3c-13.55-4.81-24.8701-15.67-29.97-29.14c-6.64-17.51-1.83-38.82,12.23-51.34
		c19.63-19.47,55.1-19.33,74.37,0.61c3.42,3.01,5.58,7.09,8.6,10.46c8.43,8.92,20.32,14.27,32.56,14.97
		c16.67,0.9,33.61-3.01,48.11-11.31c22.7-12.38,38.68-33.9,50.84-56.18c16.17-30.19,24.39-64.06,27.86-97.96
		c3.16-32.57,2.86-65.56-1.77-97.97c-4.67-32.34-14.04-64.09-28.75-93.31c-15.56-31.02-37.03-59.02-62.59-82.46
		c-25.55-23.43-55.71-41.66-88.05-54.04c-36.28-13.99-74.98-20.94-113.71-23.11c-45.16-2.69-91.07,0.85-134.41,14.37
		c-22.37,6.73-43.62,16.74-63.88,28.28c-45.8,26.89-84.32,65.43-113.24,109.82c-31.53,48.48-49.67,105.01-55.1,162.43
		c-4.5,47.21-2.39,95.25,8.24,141.53c9.16,39.35,25.28,77.21,48.52,110.33c22.34,31.83,50.63,59.56,83.29,80.73
		c31.01,20.1,65.83,34.0099,101.84,42.1c33.98,7.75,68.96,10.43,103.75,9.89c59.24-0.78,119.01-8.84,174.65-29.88
		c8.8-3.22,17.31-7.14,25.9-10.85c0.13,20.56-0.02,41.12,0.08,61.6801C808.66,839.19,766.96,848.73,725,854
		c-31.84,4-63.94,5.48-96.01,5.41c-38.88-0.3199-77.86-4.3199-115.64-13.72c-34.73-8.55-68.38-21.72-99.34-39.68
		c-56.52-32.84-104.07-81.16-135.58-138.47c-17.46-31.77-29.81-66.24-37.39-101.67c-10.04-47.2-12.14-95.89-8.37-143.93
		c2.93-36,9.76-71.75,21.28-106c10.93-32.72,26.18-63.98,45.28-92.71c35.31-52.75,82.56-97.89,138.14-128.81
		C477.72,71.95,522.29,57.39,567.9,50.35z"/>
	<path d="M801.5,247.54c3.92-6.35,14.31-6.6,18.76-0.74c2.17,3.24,1.88,7.35,1.52,11.05c8.71-1.87,17.5099-3.36,26.12-5.66
		c13.7-2.86,27.46-5.42,41.15-8.32c3.83-0.8,8.1-0.64,11.48,1.56c5.87,3.84,6.1,14.38-0.84,17.28c-6.87,2.88-14.54,3.08-21.66,5.22
		c-19.17,4.28-38.51,7.79-57.73,11.8c-2.88,25.33-3.46,50.86-6.2,76.2c-0.91,13.08-1.88,26.16-2.79,39.25
		c-0.47,7.1,0.15,14.24-0.29,21.34c-0.42,0.25-1.25,0.76-1.67,1.01c-1.1,16.84-2.42,33.67-3.5099,50.52
		c-2.36,21.62-3.19,43.39-5.06,65.06c-1.33,10.1-1.47,20.32-2.54,30.44c-0.83,5.56-7.34,7.75-12.26,7.66
		c-120.64,0-241.28-0.01-361.92,0c-4.19,0.05-8.82-1.34-11.27-4.94c-2.25-4.38-1.57-10.71,2.71-13.62c2.42-1.81,5.44-2.69,8.45-2.57
		c116.34,0.06,232.69-0.04,349.03,0.05c1.21-0.32,3.89,0.66,4.02-1.22c0.84-11.77,1.78-23.55,2.52-35.33
		c-109.51,0.06-219.02,0.01-328.53,0.02c-11.12-0.06-22.23,0.13-33.34-0.09c-1.7-10.58-4.22-21.01-5.74-31.62
		c-2.72-11.14-3.81-22.6-6.54-33.74c-3.85-22.79-8.62-45.4-12.46-68.2c-2.76-11.89-4.18-24.04-6.96-35.92
		c-1.3-10.85-4.56-21.36-5.54-32.24c13.36-2.55,26.99-3.5,40.46-5.39c25.32-3.27,50.72-6.08,76-9.65
		c26.58-3.67,53.26-6.61,79.87-10.05c13.36-1.8,26.81-3,40.08-5.38c33.9-4.08,67.78-8.37,101.66-12.58
		c26.77-4.04,53.74-6.78,80.58-10.36C799.26,254.68,799.11,250.64,801.5,247.54 M776.11,282.91c-18.23,2.43-36.52,4.46-54.75,6.87
		c0.75,35.24,1.79,70.47,2.8,105.7c21.46,0.06,42.92,0,64.38,0.03c1.13-11.5,1.31-23.08,2.81-34.54c1-12.34,1.79-24.7,2.66-37.04
		c0.85-14.71,2.62-29.33,3.49-44.03C790.38,280.99,783.18,281.52,776.11,282.91 M658.97,297.87c-23.8799,2.88-47.73,5.93-71.61,8.82
		c1.14,19.76,2.41,39.52,3.68,59.27c1.21,9.79,1.39,19.67,2.13,29.5c36.17,0.09,72.34,0.04,108.51,0.02
		c-0.19-14.83-0.54-29.68-1.48-44.48c-0.41-19.47-1-38.94-1.48-58.41C685.46,294.27,672.15,295.63,658.97,297.87 M484.07,319.8
		c1.47,25.28,4.59,50.41,6.05,75.69c26.77,0.03,53.54-0.02,80.32,0.03c-0.52-11.82-1.52-23.61-2.1-35.43
		c-1.78-16.79-2.32-33.69-3.51-50.53C537.96,313.31,511.03,316.68,484.07,319.8 M406.35,329.89c3.92,21.89,8.26,43.7,12.19,65.58
		c16.32,0.05,32.65,0.05,48.98,0c-1.16-14.14-2.19-28.29-3.31-42.43c-0.71-10.15-2.28-20.22-2.66-30.39
		C443.12,324.88,424.81,327.88,406.35,329.89 M422.57,416.92c0.97,4.98,1.67,10.01,2.92,14.93c1.86,9.22,2.97,18.59,5.24,27.74
		c1.67,11.02,4.08,21.9,6.06,32.86c13.04-0.02,26.07,0.07,39.1-0.04c-1.52-14.13-1.93-28.37-3.8-42.46
		c-0.84-10.97-1.65-21.93-2.58-32.89C453.86,416.99,438.22,417.12,422.57,416.92 M492.13,417.14c1.62,16.97,2.59,33.99,4.17,50.96
		c1.18,8.08,1.38,16.25,2.19,24.36c26.19-0.01,52.38,0.01,78.58-0.01c-2.18-25.15-2.74-50.44-5.34-75.56
		C545.21,417.28,518.66,416.82,492.13,417.14 M594.55,417.05c0.28,5.63,0.76,11.25,1.02,16.88c1.94,19.45,2.62,39.01,3.98,58.52
		c34.92,0.03,69.83-0.02,104.74,0.03c-0.45-25.14-1.3-50.27-1.91-75.4C666.43,417,630.5,417.05,594.55,417.05 M725.02,417.07
		c0.57,25.13,1.6,50.25,1.8,75.38c18.16,0.03,36.33-0.02,54.5,0.03c2.13-25.11,3.17-50.31,5.81-75.37
		C766.43,416.91,745.72,417.07,725.02,417.07z"/>
	<path d="M483.57,600.89c7.05-0.98,14.5-0.99,21.25,1.55c6.24,2.52,12.19,6,16.86,10.92c8.45,9.17,12.23,22.68,8.64,34.78
		c-2.85,9.07-8.78,17.33-17.14,22.07c-17.01,10.75-41.76,6.88-54.14-9.17c-6.82-8.36-9.32-19.69-7.21-30.21
		C455,615.55,468.57,603.91,483.57,600.89z"/>
</g>
</svg>
